# xmcd
#
# Track frame offsets:
#	150
#	14643
#	28140
#	42966
#	59805
#	76695
#	93183
#	109257
#	122161
#	138738
#
# Disc length: 2151 seconds
#
# Revision: 0
# Processed by: cddbd v1.5.2PL0 Copyright (c) Steve Scherf et al.
# Submitted via: EasyCDDAExtractor 11.0.2.1
#
DISCID=8a08650a
DTITLE=ผู้การเรือเร่ - เพลงประกอบละคร ผู้การเรือเร่
DYEAR=2006
DGENRE=Country
TTITLE0=ทหารเรืออ้อนรัก
TTITLE1=คนที่ไม่ใช่
TTITLE2=เขิน
TTITLE3=มองฟ้าคิดถึงเธอ
TTITLE4=รักบึงเก่า
TTITLE5=คิดถึง
TTITLE6=ทหารเรือสมัครรัก
TTITLE7=เนวี่บลู
TTITLE8=คนที่รู้ใจ
TTITLE9=พริกขี้หนู
EXTD=
EXTT0=
EXTT1=
EXTT2=
EXTT3=
EXTT4=
EXTT5=
EXTT6=
EXTT7=
EXTT8=
EXTT9=
PLAYORDER=
